HIERARCHY
ROOT Hips
{
	OFFSET -0.001795 -0.223333 0.028219
	CHANNELS 6 Xposition Yposition Zposition Zrotation Yrotation Xrotation 
	JOINT LeftUpLeg
	{
		OFFSET 0.069520 -0.091406 -0.006815
		CHANNELS 3 Zrotation Yrotation Xrotation
		JOINT LeftLeg
		{
			OFFSET 0.034277 -0.375199 -0.004496
			CHANNELS 3 Zrotation Yrotation Xrotation
			JOINT LeftFoot
			{
				OFFSET -0.013596 -0.397961 -0.043693
				CHANNELS 3 Zrotation Yrotation Xrotation
				JOINT LeftToe
				{
					OFFSET 0.026358 -0.055791 0.119288
					CHANNELS 3 Zrotation Yrotation Xrotation
					End Site
					{
						OFFSET 0.000000 0.000000 0.000000
					}
				}
			}
		}
	}
	JOINT RightUpLeg
	{
		OFFSET -0.067670 -0.090522 -0.004320
		CHANNELS 3 Zrotation Yrotation Xrotation
		JOINT RightLeg
		{
			OFFSET -0.038290 -0.382569 -0.008850
			CHANNELS 3 Zrotation Yrotation Xrotation
			JOINT RightFoot
			{
				OFFSET 0.015774 -0.398415 -0.042312
				CHANNELS 3 Zrotation Yrotation Xrotation
				JOINT RightToe
				{
					OFFSET -0.025372 -0.048144 0.123348
					CHANNELS 3 Zrotation Yrotation Xrotation
					End Site
					{
						OFFSET 0.000000 0.000000 0.000000
					}
				}
			}
		}
	}
	JOINT Spine
	{
		OFFSET -0.002533 0.108963 -0.026696
		CHANNELS 3 Zrotation Yrotation Xrotation
		JOINT Spine1
		{
			OFFSET 0.005487 0.135180 0.001092
			CHANNELS 3 Zrotation Yrotation Xrotation
			JOINT Spine2
			{
				OFFSET 0.001457 0.052922 0.025425
				CHANNELS 3 Zrotation Yrotation Xrotation
				JOINT Neck
				{
					OFFSET -0.002778 0.213870 -0.042857
					CHANNELS 3 Zrotation Yrotation Xrotation
					JOINT Head
					{
						OFFSET 0.005152 0.064970 0.051349
						CHANNELS 3 Zrotation Yrotation Xrotation
						End Site
						{
							OFFSET 0.000000 0.000000 0.000000
						}
					}
				}
				JOINT LeftShoulder
				{
					OFFSET 0.078845 0.121749 -0.034090
					CHANNELS 3 Zrotation Yrotation Xrotation
					JOINT LeftArm
					{
						OFFSET 0.090977 0.030469 -0.008868
						CHANNELS 3 Zrotation Yrotation Xrotation
						JOINT LeftForeArm
						{
							OFFSET 0.259612 -0.012772 -0.027456
							CHANNELS 3 Zrotation Yrotation Xrotation
							JOINT LeftHand
							{
								OFFSET 0.249234 0.008986 -0.001171
								CHANNELS 3 Zrotation Yrotation Xrotation
								End Site
								{
									OFFSET 0.000000 0.000000 0.000000
								}
							}
						}
					}
				}
				JOINT RightShoulder
				{
					OFFSET -0.081759 0.118833 -0.038615
					CHANNELS 3 Zrotation Yrotation Xrotation
					JOINT RightArm
					{
						OFFSET -0.096012 0.032551 -0.009143
						CHANNELS 3 Zrotation Yrotation Xrotation
						JOINT RightForeArm
						{
							OFFSET -0.253742 -0.013329 -0.021401
							CHANNELS 3 Zrotation Yrotation Xrotation
							JOINT RightHand
							{
								OFFSET -0.255298 0.007772 -0.005559
								CHANNELS 3 Zrotation Yrotation Xrotation
								End Site
								{
									OFFSET 0.000000 0.000000 0.000000
								}
							}
						}
					}
				}
			}
		}
	}
}
MOTION
Frames: 16
Frame Time: 0.050000
0.227960 0.963360 0.352419 -178.617382 58.471303 173.945266 0.783110 -1.168280 -3.541226 -7.291958 -7.950817 24.432314 23.127641 8.810232 12.405864 0.000000 0.000000 0.000000 3.785918 -1.696794 3.123792 0.482164 -4.026633 3.581798 5.776498 -1.313053 12.702632 0.000000 0.000000 0.000000 -3.207865 -2.018770 14.504849 6.372601 1.957200 -27.019706 -1.228490 -1.386161 35.241290 1.808516 7.920977 -24.725219 0.000000 0.000000 0.000000 -22.115052 -3.581830 -42.777869 -51.013464 30.447884 -13.703772 -25.414903 -30.515393 2.647224 0.000000 0.000000 0.000000 20.835516 -9.239769 19.637334 56.742257 31.807569 10.658749 -15.923914 30.129193 -2.634303 0.000000 0.000000 0.000000 
0.230700 0.962706 0.348751 -177.832602 59.076316 175.309475 0.174970 -1.130676 -2.125678 -3.513989 -5.464563 18.778563 19.181931 5.517310 10.093152 0.000000 0.000000 0.000000 4.492941 -1.442177 3.003427 0.488101 -3.487084 2.222537 5.148780 -1.572717 13.053419 0.000000 0.000000 0.000000 -2.883434 -1.630482 13.265868 6.971951 1.906508 -26.171418 -1.417339 -2.229923 35.365675 0.218725 8.059404 -24.318861 0.000000 0.000000 0.000000 -21.778337 -4.206210 -41.419882 -52.658203 29.307183 -14.087066 -23.642886 -29.820594 1.955149 0.000000 0.000000 0.000000 20.830479 -8.569773 19.672588 55.952894 31.074520 9.842090 -14.965271 30.634739 -2.527268 0.000000 0.000000 0.000000 
0.232020 0.962113 0.344538 -178.153653 59.333178 175.661991 -0.432573 -1.289512 0.200499 -1.452137 -3.350404 12.899422 17.042055 3.715269 9.643696 0.000000 0.000000 0.000000 4.260498 -1.510329 3.118674 0.313036 -3.260186 1.881429 5.417117 -1.622185 12.412188 0.000000 0.000000 0.000000 -2.676058 -1.473790 12.738131 7.066578 1.878787 -25.888093 -1.782730 -2.646454 35.349427 0.456539 8.011461 -23.925257 0.000000 0.000000 0.000000 -21.505379 -4.287826 -40.690124 -52.323240 29.470096 -14.248267 -24.219726 -29.444406 1.988091 0.000000 0.000000 0.000000 21.717192 -8.559390 20.167088 54.298229 31.097291 8.611747 -14.893232 30.710386 -2.502104 0.000000 0.000000 0.000000 
0.231928 0.962096 0.340343 -178.287497 59.662191 176.107084 -0.536382 -1.629201 2.116720 -1.380428 -2.349987 8.389869 15.523441 3.740229 11.478746 0.000000 0.000000 0.000000 4.055500 -1.639556 3.667803 0.158614 -2.771848 0.712910 5.825927 -1.295437 12.371312 0.000000 0.000000 0.000000 -2.760600 -1.279945 11.999834 7.516657 1.798720 -25.273868 -2.029557 -3.035219 35.144568 -0.167465 8.161084 -23.983799 0.000000 0.000000 0.000000 -21.249306 -3.859055 -39.929197 -52.710283 28.804215 -14.427601 -24.452386 -28.556684 1.917561 0.000000 0.000000 0.000000 21.787528 -7.749035 20.513336 53.528532 29.998097 7.558450 -14.469837 31.290003 -2.476268 0.000000 0.000000 0.000000 
0.230751 0.962440 0.336128 -178.721316 59.600833 176.100465 -1.313646 -1.719585 3.309443 -0.419234 -1.822153 5.650390 14.559381 3.497691 12.075398 0.000000 0.000000 0.000000 3.394250 -1.735967 3.202049 0.155263 -2.834096 1.019508 5.905405 -1.170372 12.542983 0.000000 0.000000 0.000000 -2.839552 -1.217294 11.734622 7.765000 1.742217 -24.933264 -2.239464 -3.163827 35.029225 -0.531720 7.967406 -23.395363 0.000000 0.000000 0.000000 -21.055386 -3.783139 -39.553662 -52.589132 28.618085 -14.448977 -24.982651 -27.893383 1.956351 0.000000 0.000000 0.000000 22.437807 -7.812545 20.901570 53.033331 29.801920 6.888582 -14.269990 30.506427 -2.439922 0.000000 0.000000 0.000000 
0.229048 0.962782 0.331835 -179.196473 59.001226 175.645117 -1.845308 -1.939507 4.508875 -0.400613 -1.681491 3.361464 14.453511 3.862243 13.723951 0.000000 0.000000 0.000000 2.809923 -1.961813 3.339412 0.112704 -2.783286 0.825361 5.671779 -1.624367 12.606111 0.000000 0.000000 0.000000 -2.996940 -1.256153 11.858037 7.643870 1.755168 -24.553406 -1.966304 -3.483115 35.067398 -1.175723 7.931477 -23.196316 0.000000 0.000000 0.000000 -20.906423 -3.896268 -39.645232 -52.279775 28.885862 -14.440904 -25.862600 -28.042282 2.204504 0.000000 0.000000 0.000000 22.661803 -7.613022 21.414999 52.565780 29.892261 6.546483 -14.285649 29.348363 -2.408499 0.000000 0.000000 0.000000 
0.227186 0.962608 0.327379 -179.866791 58.365767 175.273379 -2.369900 -1.892043 4.710826 -0.347873 -1.680654 2.392803 14.731564 3.844234 14.270468 0.000000 0.000000 0.000000 1.851391 -2.208895 2.708420 0.178340 -3.100301 1.717633 5.854041 -1.634686 12.727470 0.000000 0.000000 0.000000 -3.038699 -1.227566 11.726575 7.565527 1.760357 -24.306059 -1.849050 -3.417729 35.039238 -2.072013 7.636959 -22.714036 0.000000 0.000000 0.000000 -20.699155 -4.016189 -39.922175 -52.146776 28.759649 -14.323757 -26.396086 -27.768187 2.288949 0.000000 0.000000 0.000000 23.190338 -8.052475 21.865610 52.552450 29.923442 6.254162 -14.148224 28.366003 -2.351300 0.000000 0.000000 0.000000 
0.225555 0.962153 0.322699 179.618900 57.019858 174.559942 -2.765996 -2.135684 5.655355 -0.123264 -1.670315 1.165880 13.843123 3.423606 14.832764 0.000000 0.000000 0.000000 1.160680 -2.530198 2.627882 0.020952 -3.506810 2.868788 6.124137 -2.321595 11.883570 0.000000 0.000000 0.000000 -3.069226 -1.313509 12.081809 7.210263 1.846807 -24.341961 -1.483778 -3.477750 35.295847 -2.540540 7.362422 -22.682196 0.000000 0.000000 0.000000 -20.019784 -4.181265 -40.280496 -52.137159 29.516968 -14.847844 -27.286614 -28.310606 2.482986 0.000000 0.000000 0.000000 23.264522 -8.804139 22.022045 52.877392 29.955608 6.396864 -14.090226 27.026445 -2.257273 0.000000 0.000000 0.000000 
0.224125 0.961532 0.318193 179.051214 55.964855 173.910616 -3.199993 -2.261701 6.220365 -0.028058 -1.692359 0.689818 13.290225 3.147467 15.243057 0.000000 0.000000 0.000000 0.381362 -2.806997 1.796993 -0.228544 -4.243517 4.918634 6.643708 -2.401900 11.327062 0.000000 0.000000 0.000000 -2.863778 -1.326996 12.134278 6.562559 1.924526 -24.019495 -1.318549 -3.408189 35.161027 -2.770112 6.984289 -22.517799 0.000000 0.000000 0.000000 -19.475084 -4.690946 -40.477338 -52.477409 29.646781 -15.127982 -27.377205 -28.968315 2.475431 0.000000 0.000000 0.000000 23.735828 -9.289977 22.659742 53.342613 30.171051 6.416568 -14.543319 26.086611 -2.289559 0.000000 0.000000 0.000000 
0.223061 0.960819 0.314292 178.677577 53.496977 173.249278 -3.418937 -2.653053 7.106967 -0.023771 -1.844733 -0.493123 11.404843 1.898623 14.930486 0.000000 0.000000 0.000000 -0.091054 -3.142282 1.294538 -1.101491 -5.166886 7.337614 8.627967 -2.779408 9.038986 0.000000 0.000000 0.000000 -2.860632 -1.461193 12.622632 5.877284 2.033188 -24.139117 -1.242117 -3.628560 35.154160 -2.473495 6.299443 -22.305543 0.000000 0.000000 0.000000 -18.493443 -5.849673 -41.028274 -52.859344 30.469279 -15.692272 -26.922311 -29.610502 2.266248 0.000000 0.000000 0.000000 24.230504 -10.187183 23.826649 53.622166 31.187881 6.692942 -15.190578 24.651907 -2.329794 0.000000 0.000000 0.000000 
0.222453 0.960331 0.311364 178.630365 51.645001 173.209847 -3.487879 -2.872266 7.440395 0.131088 -1.905144 -0.820956 10.289242 0.860711 14.688033 0.000000 0.000000 0.000000 0.174597 -3.088054 -0.199617 -2.666333 -6.340407 10.496113 10.922675 -2.335497 7.158118 0.000000 0.000000 0.000000 -2.511636 -1.407061 12.409455 5.265743 2.033218 -23.571027 -1.135685 -3.474101 34.770891 -3.009854 5.558541 -22.314999 0.000000 0.000000 0.000000 -17.708252 -6.783506 -41.718650 -53.297860 31.574292 -16.458971 -27.010797 -29.843150 2.125556 0.000000 0.000000 0.000000 24.733792 -10.797342 25.083643 54.224208 32.235116 7.177557 -16.479612 23.513167 -2.431678 0.000000 0.000000 0.000000 
0.222566 0.960056 0.309204 178.431145 49.248095 173.073754 -3.513551 -3.135215 7.726892 -0.056395 -2.134133 -1.406683 8.921723 -0.526286 14.082392 0.000000 0.000000 0.000000 0.470027 -3.140097 -1.678815 -4.494564 -7.564487 13.313016 14.332745 -1.373090 5.235034 0.000000 0.000000 0.000000 -2.468440 -1.478654 12.642419 4.796367 2.037482 -23.492587 -1.163272 -3.897247 34.621739 -2.512829 5.119005 -22.845187 0.000000 0.000000 0.000000 -17.030988 -7.233546 -42.873688 -53.504392 32.633792 -17.063668 -26.366295 -30.011952 1.836704 0.000000 0.000000 0.000000 24.690568 -11.114767 26.259292 54.319867 33.466492 7.849526 -17.314263 22.382257 -2.478970 0.000000 0.000000 0.000000 
0.223756 0.960050 0.307636 178.502729 47.434598 173.336067 -3.382708 -3.370154 7.895047 -0.323057 -2.331780 -1.673282 8.001620 -1.351399 14.142412 0.000000 0.000000 0.000000 1.104580 -3.034923 -3.338003 -6.092425 -8.743960 15.709878 16.810777 -0.522180 3.815593 0.000000 0.000000 0.000000 -2.421402 -1.497354 12.651644 4.853102 1.938829 -22.898702 -1.361181 -3.691265 34.200833 -2.874188 4.466976 -23.135264 0.000000 0.000000 0.000000 -16.688144 -7.817575 -43.998614 -53.583462 34.052916 -17.627335 -25.937466 -30.419432 1.693003 0.000000 0.000000 0.000000 24.784547 -10.994365 27.822416 54.229909 35.183555 8.549475 -18.089807 21.828974 -2.610188 0.000000 0.000000 0.000000 
0.226612 0.960164 0.306469 178.523075 45.566105 173.756352 -3.099120 -3.471812 7.628535 -0.272715 -2.427270 -1.710807 6.868530 -2.741003 13.515198 0.000000 0.000000 0.000000 1.305306 -3.177322 -4.426523 -6.841728 -9.459651 16.778228 20.196334 0.576692 2.637671 0.000000 0.000000 0.000000 -2.747604 -1.537572 12.725295 5.359298 1.909622 -23.052778 -1.686774 -3.744638 33.832185 -1.808657 4.306427 -23.926187 0.000000 0.000000 0.000000 -16.355624 -7.582857 -45.300574 -53.561159 35.309133 -18.221526 -25.652130 -29.840866 1.503919 0.000000 0.000000 0.000000 24.084891 -10.872716 28.553969 54.464797 36.189092 9.649179 -17.891936 21.587615 -2.696670 0.000000 0.000000 0.000000 
0.231410 0.959736 0.305792 178.565520 44.202200 173.964735 -2.859706 -3.694744 7.736752 -0.191242 -2.459792 -1.744707 6.052685 -3.654133 13.195679 0.000000 0.000000 0.000000 1.771926 -3.102358 -5.056621 -7.284405 -9.610355 17.007238 22.139827 0.843738 2.572214 0.000000 0.000000 0.000000 -2.861253 -1.665513 13.053925 5.393395 1.880529 -23.045167 -1.627748 -3.472183 33.452981 -1.970775 3.826503 -24.314022 0.000000 0.000000 0.000000 -16.258265 -7.680977 -46.737553 -52.716201 36.910687 -18.382206 -25.598877 -29.277987 1.481039 0.000000 0.000000 0.000000 23.884760 -10.570172 29.865515 53.817125 38.076931 10.468198 -19.141189 21.805649 -2.995106 0.000000 0.000000 0.000000 
0.238040 0.959166 0.305734 178.579813 42.335176 174.193492 -2.365519 -3.859163 7.387218 -0.433929 -2.637678 -1.566358 6.779440 -4.372346 13.227046 0.000000 0.000000 0.000000 2.235393 -2.990730 -5.100866 -7.335878 -9.132770 16.100608 25.296349 0.717156 2.365204 0.000000 0.000000 0.000000 -3.248868 -1.779526 13.273315 5.724366 1.867075 -23.253142 -1.723976 -3.592035 33.063649 -1.355029 3.625649 -25.098429 0.000000 0.000000 0.000000 -16.285732 -7.852318 -48.581662 -51.579167 38.688254 -18.243047 -25.086361 -28.443816 1.376998 0.000000 0.000000 0.000000 22.816761 -10.464932 30.262164 55.230518 39.187003 12.532866 -19.361338 22.289852 -3.233727 0.000000 0.000000 0.000000 
